HIERARCHY
ROOT root
{
	OFFSET 0.000000 0.000000 0.000000
	CHANNELS 6 Xposition Yposition Zposition Zrotation Yrotation Xrotation
	JOINT lhip
	{
		OFFSET 0.058581 -0.082280 -0.017664
		CHANNELS 3 Zrotation Yrotation Xrotation
		JOINT lknee
		{
			OFFSET 0.043451 -0.386469 0.008037
			CHANNELS 3 Zrotation Yrotation Xrotation
			JOINT lankle
			{
				OFFSET -0.014790 -0.426874 -0.037428
				CHANNELS 3 Zrotation Yrotation Xrotation
				JOINT ltoe
				{
					OFFSET 0.041054 -0.060286 0.122042
					CHANNELS 3 Zrotation Yrotation Xrotation
					End Site
					{
						OFFSET 0.000000 0.000000 0.000000
					}
				}
			}
		}
	}
	JOINT rhip
	{
		OFFSET -0.060310 -0.090513 -0.013543
		CHANNELS 3 Zrotation Yrotation Xrotation
		JOINT rknee
		{
			OFFSET -0.043257 -0.383688 -0.004843
			CHANNELS 3 Zrotation Yrotation Xrotation
			JOINT rankle
			{
				OFFSET 0.019056 -0.420046 -0.034562
				CHANNELS 3 Zrotation Yrotation Xrotation
				JOINT rtoe
				{
					OFFSET -0.034840 -0.062106 0.130323
					CHANNELS 3 Zrotation Yrotation Xrotation
					End Site
					{
						OFFSET 0.000000 0.000000 0.000000
					}
				}
			}
		}
	}
	JOINT lowerback
	{
		OFFSET 0.004439 0.124404 -0.038385
		CHANNELS 3 Zrotation Yrotation Xrotation
		JOINT upperback
		{
			OFFSET 0.004488 0.137956 0.026820
			CHANNELS 3 Zrotation Yrotation Xrotation
			JOINT chest
			{
				OFFSET -0.002265 0.056032 0.002855
				CHANNELS 3 Zrotation Yrotation Xrotation
				JOINT lowerneck
				{
					OFFSET -0.013390 0.211636 -0.033468
					CHANNELS 3 Zrotation Yrotation Xrotation
					JOINT upperneck
					{
						OFFSET 0.010113 0.088937 0.050410
						CHANNELS 3 Zrotation Yrotation Xrotation
						End Site
						{
							OFFSET 0.000000 0.000000 0.000000
						}
					}
				}
				JOINT lclavicle
				{
					OFFSET 0.071702 0.114000 -0.018898
					CHANNELS 3 Zrotation Yrotation Xrotation
					JOINT lshoulder
					{
						OFFSET 0.122921 0.045205 -0.019046
						CHANNELS 3 Zrotation Yrotation Xrotation
						JOINT lelbow
						{
							OFFSET 0.255332 -0.015649 -0.022946
							CHANNELS 3 Zrotation Yrotation Xrotation
							JOINT lwrist
							{
								OFFSET 0.265709 0.012698 -0.007375
								CHANNELS 3 Zrotation Yrotation Xrotation
								End Site
								{
									OFFSET 0.000000 0.000000 0.000000
								}
							}
						}
					}
				}
				JOINT rclavicle
				{
					OFFSET -0.082954 0.112472 -0.023707
					CHANNELS 3 Zrotation Yrotation Xrotation
					JOINT rshoulder
					{
						OFFSET -0.113228 0.046853 -0.008472
						CHANNELS 3 Zrotation Yrotation Xrotation
						JOINT relbow
						{
							OFFSET -0.260127 -0.014369 -0.031269
							CHANNELS 3 Zrotation Yrotation Xrotation
							JOINT rwrist
							{
								OFFSET -0.269108 0.006794 -0.006027
								CHANNELS 3 Zrotation Yrotation Xrotation
								End Site
								{
									OFFSET 0.000000 0.000000 0.000000
								}
							}
						}
					}
				}
			}
		}
	}
}
MOTION
Frames: 10
Frame Time: 0.033333
-0.055979 0.271952 0.974063 77.226172 -5.836491 98.121787 -1.057084 8.770595 -23.094579 -4.470953 13.699088 22.310504 -0.743865 4.126024 -9.601055 0.000000 -0.000000 0.000000 -10.970521 -5.938777 -37.259540 0.749348 -5.860798 30.055091 5.683466 4.118394 0.591805 0.000000 -0.000000 0.000000 5.533228 -0.015601 33.363963 12.409609 -10.615760 7.489046 7.988724 0.401608 6.755216 -3.470339 23.009792 32.418604 3.724389 0.296188 -2.210905 34.784062 -37.905822 -30.227653 -33.065803 -67.450300 -1.277848 10.134889 -12.882893 1.149064 -24.142742 -4.892087 0.453818 8.228911 26.302201 0.804573 44.022302 31.583695 4.325577 -23.628990 24.483274 -2.351695 25.462094 -1.487188 -2.084339 
-0.056055 0.272850 0.973643 77.000554 -5.947162 98.180646 -1.285887 8.889709 -23.363084 -4.320981 13.790019 22.779676 -0.726244 4.075939 -9.855384 0.000000 -0.000000 0.000000 -11.081462 -6.006996 -37.491468 0.772085 -5.790293 30.252667 5.697632 4.293628 0.471387 0.000000 -0.000000 0.000000 5.643924 -0.148858 33.537339 12.485705 -10.764756 7.668672 8.000004 0.511582 6.676938 -3.251532 23.049232 32.258363 3.692038 0.289655 -2.220299 34.892299 -37.926648 -30.242144 -34.270839 -67.352429 0.048664 9.779923 -13.712767 1.995956 -23.647362 -4.932524 0.317661 8.358351 26.296193 0.791951 43.570661 31.715077 4.056270 -23.662953 24.767332 -2.548852 24.948363 -1.267252 -1.820373 
-0.056215 0.273582 0.973232 76.840075 -6.106598 98.331784 -1.553147 8.921761 -23.522568 -4.259126 13.928142 22.823822 -0.543627 3.993916 -9.903552 0.000000 -0.000000 0.000000 -11.257590 -6.066535 -37.784122 0.724443 -5.782419 30.396883 5.747212 4.447143 0.450682 0.000000 -0.000000 0.000000 5.779203 -0.371401 33.746659 12.499053 -10.889991 7.903953 7.919143 0.656618 6.608915 -3.159902 23.216042 31.840350 3.644714 0.363644 -2.376269 35.086914 -37.907186 -30.429631 -35.327278 -67.213938 1.044544 9.474126 -14.558507 2.886513 -23.683682 -5.157173 0.606192 8.272015 26.204945 0.576880 43.501669 31.749636 3.908296 -24.061595 25.319514 -3.121727 25.001075 -1.362604 -2.127900 
-0.056398 0.274377 0.972635 76.626772 -6.251922 98.439102 -1.598075 9.106839 -23.481079 -4.551350 14.227497 22.511041 -0.654733 3.851459 -9.715543 0.000000 -0.000000 0.000000 -11.397624 -6.205915 -38.036568 0.718419 -5.727401 30.480707 5.865815 4.686033 0.528187 0.000000 -0.000000 0.000000 5.970006 -0.624531 34.237802 12.445873 -10.879935 7.824915 7.839839 0.729467 6.633802 -3.260554 23.361652 31.359671 3.582018 0.483238 -2.212382 35.100255 -38.050671 -30.481043 -35.943101 -66.893526 1.827768 9.026135 -15.654518 3.561322 -22.939946 -5.277553 0.706675 8.267156 26.153466 0.375920 43.284118 31.893021 3.715826 -24.342595 25.602399 -3.700979 24.733695 -1.292785 -1.686225 
-0.056599 0.275243 0.971929 76.267141 -6.361953 98.736727 -1.745440 9.255995 -23.758940 -4.600022 14.516534 22.498034 -0.583240 3.808563 -9.672176 0.000000 -0.000000 0.000000 -11.499258 -6.211878 -38.495037 0.749261 -5.587402 30.555023 5.978778 4.794922 0.601406 0.000000 -0.000000 0.000000 6.042212 -0.777597 34.731960 12.404931 -10.845640 7.750699 7.871622 0.841704 6.558270 -3.485587 23.390140 31.252749 3.388279 0.686115 -2.445078 35.048746 -38.138158 -30.390047 -36.500406 -66.569364 2.477793 8.644504 -16.577639 4.225050 -22.106797 -5.495780 0.896439 8.211323 26.268663 0.364306 42.914681 31.826569 3.374143 -24.655838 26.089133 -4.263307 24.495385 -1.006467 -1.366463 
-0.056927 0.275979 0.971495 76.021695 -6.473226 98.973571 -1.879645 9.184039 -24.036295 -4.578085 14.752416 22.554970 -0.569386 3.867694 -9.699115 0.000000 -0.000000 0.000000 -11.649729 -6.184782 -38.820879 0.756842 -5.603577 30.548456 6.058716 4.883008 0.677393 0.000000 -0.000000 0.000000 6.198750 -0.938009 35.309189 12.405605 -10.827362 7.666265 7.844467 0.900415 6.459591 -3.558889 23.404657 31.514185 3.353063 0.771387 -2.635229 34.994418 -38.537710 -30.288779 -36.177208 -66.231771 2.503795 8.251677 -17.092703 4.656783 -21.718010 -5.625287 1.354025 8.244468 26.406415 0.375625 42.493002 31.732966 3.133515 -25.065654 26.459693 -4.760125 24.428551 -0.932802 -1.034377 
-0.057384 0.276752 0.970990 75.665718 -6.551771 99.302457 -1.969794 9.064098 -24.372164 -4.488509 15.085032 22.559949 -0.592265 3.896421 -9.669179 0.000000 -0.000000 0.000000 -11.713144 -6.036786 -39.257033 0.760196 -5.430339 30.498856 6.202584 4.829131 0.866565 0.000000 -0.000000 0.000000 6.219797 -0.982971 35.774608 12.391805 -10.768898 7.710462 7.811000 0.885853 6.464928 -3.472280 23.362889 31.981685 3.132908 0.974634 -2.740111 35.090021 -38.696813 -30.265213 -36.417316 -66.002861 2.997802 8.162082 -17.159608 4.990555 -21.222771 -5.702924 2.041250 8.401143 26.500891 0.570711 41.884125 31.899750 3.020263 -25.431354 26.696723 -5.514651 24.380000 -1.049583 -1.028310 
-0.057599 0.277420 0.970951 75.410029 -6.572896 99.452129 -2.084667 9.066144 -24.523272 -4.398189 15.158575 22.552514 -0.584612 4.065905 -9.657909 0.000000 -0.000000 0.000000 -11.767105 -6.015767 -39.388931 0.882375 -5.358415 30.303514 6.251045 4.849266 1.038349 0.000000 -0.000000 0.000000 6.358906 -0.902885 35.913968 12.401828 -10.919030 8.629195 7.832540 0.928188 6.395743 -3.424488 23.390764 32.381193 3.021975 0.977448 -3.201205 35.345656 -38.999732 -30.535958 -35.514265 -65.710603 2.378117 7.935990 -17.037075 5.195740 -21.186778 -5.361283 2.665401 8.210957 26.733562 0.144529 41.280951 31.870220 2.669591 -25.721710 26.870275 -6.058749 24.097730 -0.984516 -0.732839 
-0.057678 0.277811 0.970809 75.196155 -6.605074 99.647203 -2.135834 9.026206 -24.720661 -4.369780 15.282811 22.558404 -0.635043 4.185198 -9.637877 0.000000 -0.000000 0.000000 -11.871272 -5.843848 -39.573098 0.928793 -5.372009 30.151208 6.310844 4.779195 1.161861 0.000000 -0.000000 0.000000 6.442345 -0.778347 36.229987 12.498776 -10.964685 9.069725 7.911031 0.920039 6.329543 -3.208274 23.244367 33.019134 3.126007 0.839484 -3.426409 35.439640 -39.463328 -30.606395 -34.910518 -65.462611 1.989666 7.921062 -16.599936 4.922810 -20.942600 -5.224965 3.290754 8.059235 26.869674 -0.154374 40.753185 31.678081 2.456840 -25.922872 27.046642 -6.472922 24.222709 -1.095778 -0.981846 
-0.057376 0.278088 0.970510 75.072679 -6.674128 99.799109 -2.266522 9.062240 -24.877858 -4.273128 15.344191 22.512532 -0.696313 4.187912 -9.543982 0.000000 -0.000000 0.000000 -11.931465 -5.752899 -39.710567 0.874104 -5.307236 30.045113 6.309226 4.756919 1.197588 0.000000 -0.000000 0.000000 6.520104 -0.860964 36.706133 12.485301 -10.979003 9.324401 7.931457 0.944097 6.186551 -3.127332 23.158923 33.594732 3.076249 0.996333 -3.612751 35.222320 -39.776646 -30.449870 -34.867685 -65.328901 1.882365 7.938153 -16.133385 4.831439 -20.706015 -4.991179 3.646712 8.113159 26.921085 -0.308386 40.285676 31.737395 2.110603 -25.885769 26.790299 -6.733995 24.192784 -1.005681 -0.950332 
